<?xml version="1.0" standalone="no"?>
<!DOCTYPE svg PUBLIC "-//W3C//DTD SVG 20010904//EN"
 "http://www.w3.org/TR/2001/REC-SVG-20010904/DTD/svg10.dtd">
<svg version="1.0" xmlns="http://www.w3.org/2000/svg"
 width="100.000000pt" height="100.000000pt" viewBox="0 0 100.000000 100.000000"
 preserveAspectRatio="xMidYMid meet">

<g transform="translate(0.000000,100.000000) scale(0.100000,-0.100000)"
fill="#000000" stroke="none">
<path d="M124 749 c-10 -17 13 -36 27 -22 12 12 4 33 -11 33 -5 0 -12 -5 -16
-11z"/>
<path d="M372 728 c-71 -27 -137 -90 -151 -145 -17 -62 0 -114 56 -174 l46
-49 -13 -44 c-7 -25 -9 -49 -6 -54 9 -15 84 5 126 32 22 14 58 25 96 29 180
19 297 134 263 260 -15 56 -80 119 -153 146 -76 28 -190 28 -264 -1z m273 -17
c127 -56 170 -162 107 -262 -38 -59 -107 -96 -206 -109 -48 -7 -96 -22 -132
-41 -65 -34 -110 -39 -99 -11 4 9 9 33 12 53 5 31 1 38 -30 61 -61 48 -86 143
-53 206 60 115 259 166 401 103z"/>
<path d="M412 649 c-5 -13 -19 -50 -31 -83 -22 -59 -22 -91 0 -42 17 37 71 37
88 0 24 -54 21 -14 -5 57 -33 89 -41 100 -52 68z m27 -49 c9 -28 8 -30 -14
-30 -22 0 -23 2 -14 30 6 17 12 30 14 30 2 0 8 -13 14 -30z"/>
<path d="M570 585 c0 -10 -10 -15 -30 -15 -16 0 -30 -4 -30 -10 0 -5 23 -10
50 -10 28 0 50 -3 50 -6 0 -11 -34 -64 -42 -64 -4 0 -14 10 -22 22 -9 12 -19
19 -22 15 -4 -4 1 -16 12 -28 18 -20 18 -21 0 -35 -10 -7 -24 -15 -30 -17 -6
-2 -8 -7 -4 -11 3 -4 20 0 37 9 28 14 33 14 56 -1 14 -9 28 -14 31 -11 3 3 -5
13 -19 22 l-25 16 25 45 c14 24 31 44 39 44 8 0 14 5 14 10 0 6 -16 10 -35 10
-24 0 -35 5 -35 15 0 8 -4 15 -10 15 -5 0 -10 -7 -10 -15z"/>
<path d="M224 179 c-10 -17 13 -36 27 -22 12 12 4 33 -11 33 -5 0 -12 -5 -16
-11z"/>
</g>
</svg>
