<?xml version="1.0" encoding="UTF-8"?>
<svg xmlns="http://www.w3.org/2000/svg" xmlns:xlink="http://www.w3.org/1999/xlink" width="40px" height="50px" viewBox="0 0 40 50" version="1.1">
<g id="surface1">
<path style=" stroke:none;fill-rule:nonzero;fill:rgb(0%,0%,0%);fill-opacity:1;" d="M 12.851562 2.363281 C 11.371094 2.363281 10.175781 3.453125 10.175781 4.800781 L 10.175781 35.398438 C 10.175781 36.746094 11.371094 37.835938 12.851562 37.835938 L 26.949219 37.835938 C 28.429688 37.835938 29.625 36.75 29.625 35.398438 L 29.625 4.800781 C 29.625 3.453125 28.429688 2.363281 26.949219 2.363281 Z M 25.585938 3.289062 C 25.863281 3.289062 26.085938 3.511719 26.085938 3.789062 C 26.085938 4.0625 25.863281 4.289062 25.585938 4.289062 C 25.3125 4.289062 25.085938 4.0625 25.085938 3.789062 C 25.085938 3.511719 25.3125 3.289062 25.585938 3.289062 Z M 18.210938 3.550781 L 21.585938 3.550781 C 21.667969 3.550781 21.738281 3.621094 21.738281 3.710938 C 21.738281 3.804688 21.667969 3.875 21.585938 3.875 L 18.210938 3.875 C 18.132812 3.875 18.0625 3.804688 18.0625 3.710938 C 18.0625 3.621094 18.132812 3.550781 18.210938 3.550781 Z M 12.863281 3.726562 C 12.953125 3.726562 13.023438 3.796875 13.023438 3.886719 C 13.023438 3.980469 12.953125 4.0625 12.863281 4.0625 C 12.769531 4.0625 12.699219 3.980469 12.699219 3.886719 C 12.699219 3.796875 12.769531 3.726562 12.863281 3.726562 Z M 13.4375 3.738281 C 13.523438 3.738281 13.601562 3.800781 13.601562 3.886719 C 13.601562 3.972656 13.523438 4.050781 13.4375 4.050781 C 13.351562 4.050781 13.289062 3.972656 13.289062 3.886719 C 13.289062 3.800781 13.351562 3.738281 13.4375 3.738281 Z M 11.0625 5.375 L 28.738281 5.375 L 28.738281 34.085938 L 11.0625 34.085938 Z M 17.761719 35.324219 L 22.039062 35.324219 C 22.332031 35.324219 22.574219 35.511719 22.574219 35.75 L 22.574219 36.238281 C 22.574219 36.476562 22.332031 36.664062 22.039062 36.664062 L 17.761719 36.664062 C 17.464844 36.664062 17.226562 36.476562 17.226562 36.238281 L 17.226562 35.75 C 17.226562 35.511719 17.464844 35.324219 17.761719 35.324219 Z M 17.761719 35.324219 "/>
</g>
</svg>
